# xmcd CD database file
#
# Track frame offsets:
#	150
#	24123
#	58670
#	65239
#	91650
#	121522
#	147397
#	168780
#
# Disc length: 2850 seconds
#
# Revision: 0
# Processed by: cddbd v1.5.2PL0 Copyright (c) Steve Scherf et al.
# Submitted via: CDex 1.70beta2
#
DISCID=5e0b2008
DTITLE=Demonic Death Judge - Skygods
DYEAR=2012
DGENRE=Sludge/Stoner Metal
TTITLE0=Skygods
TTITLE1=Salomontaari
TTITLE2=Latitude
TTITLE3=Knee High
TTITLE4=Aqua Hiatus
TTITLE5=Cyberprick
TTITLE6=Nemesis
TTITLE7=Pilgrimage
EXTD=YEAR: 2012
EXTT0=
EXTT1=
EXTT2=
EXTT3=
EXTT4=
EXTT5=
EXTT6=
EXTT7=
PLAYORDER=
